<?xml version="1.0" standalone="no"?>
<!DOCTYPE svg PUBLIC "-//W3C//DTD SVG 20010904//EN"
 "http://www.w3.org/TR/2001/REC-SVG-20010904/DTD/svg10.dtd">
<svg version="1.0" xmlns="http://www.w3.org/2000/svg"
 width="16.000000pt" height="16.000000pt" viewBox="0 0 16.000000 16.000000"
 preserveAspectRatio="xMidYMid meet">
<metadata>
Created by potrace 1.11, written by Peter Selinger 2001-2013
</metadata>
<g transform="translate(0.000000,16.000000) scale(0.006130,-0.006130)"
fill="#000000" stroke="none">
<path d="M660 2152 c-6 -2 -10 -59 -10 -143 l0 -139 459 -2 459 -3 -185 -220
c-101 -121 -192 -229 -201 -240 -10 -11 -136 -161 -282 -334 l-264 -315 -1
-149 c-1 -125 2 -150 15 -155 11 -6 1233 -8 1308 -3 18 1 18 281 0 282 -7 0
-219 1 -470 1 l-457 1 67 81 c36 45 74 90 84 101 9 11 90 108 179 215 89 107
173 209 188 225 14 17 112 134 217 260 l191 230 0 153 1 152 -27 1 c-87 3
-1263 3 -1271 1z"/>
</g>
</svg>
